<svg width="46" height="55" viewBox="0 0 46 55" fill="none" xmlns="http://www.w3.org/2000/svg">
<path d="M0.361126 12.9399L6.3441 15.8375C5.37355 10.5132 8.91898 8.91235 12.2609 7.07033C15.9864 5.01721 19.6468 2.83887 23.8199 0.437012C24.0946 2.8099 24.2971 4.55153 24.5657 6.87578C28.6635 3.35733 31.5578 6.43805 35.028 7.75643C44.0223 11.1714 47.1028 17.2997 45.6592 26.7519C44.947 31.4025 45.5361 36.258 45.5361 41.5574L39.5236 39.0283C40.4056 44.2128 37.0036 45.7744 33.7695 47.5677C29.9158 49.6985 26.1517 51.9772 21.9307 54.4339C21.7212 51.9948 21.5665 50.1962 21.361 47.8109C16.4412 51.8789 13.2762 47.5005 9.36763 46.0155C1.73047 43.1179 -0.834246 37.9603 0.228873 29.8854C0.927785 24.5819 0.361126 19.1066 0.361126 12.9399ZM15.0881 27.1079C15.081 31.3083 19.0171 36.0251 22.7182 36.258C26.0398 36.465 30.7755 31.3601 30.7846 27.5581C30.7958 23.3204 26.9188 18.6812 23.1485 18.4267C19.7862 18.2083 15.0952 23.2521 15.0881 27.1079ZM26.3674 15.6492L25.9482 17.2138C32.7827 18.8851 34.1887 23.5201 33.5427 29.6205C33.4145 30.8468 35.0381 32.2625 35.853 33.5912L37.023 32.9196C37.023 29.1942 36.9141 25.4687 37.0515 21.7506C37.2142 17.396 33.2313 17.3856 30.9393 15.7744C29.8904 15.0365 27.9208 15.6492 26.3674 15.6492ZM10.7736 21.1907L9.02071 21.7485C9.02071 25.8765 8.28111 30.2073 9.3076 34.0527C9.89359 36.2507 13.2111 37.9148 15.5958 39.288C16.5378 39.8303 18.2846 38.9289 19.6651 38.6836C19.773 38.2883 19.8811 37.8923 19.9897 37.4957C13.3078 35.812 11.5458 31.3901 12.3596 25.2152C12.5305 23.9693 11.3392 22.537 10.7736 21.1907ZM41.953 19.121L43.0853 17.992C41.3558 12.0707 34.856 11.6888 30.804 8.50048C29.8762 7.77092 27.9178 8.397 26.4294 8.397L26.2758 9.91304L41.953 19.121ZM19.1514 46.6074L19.5207 44.724L3.53827 35.398C3.94521 42.3563 10.151 42.5902 13.9151 45.5177C15.1878 46.5081 17.3792 46.2783 19.1514 46.6074ZM21.1983 5.51601C17.2062 8.69089 10.271 8.31007 9.42155 15.1504C13.7208 12.3542 20.0934 12.1628 21.1983 5.51601ZM3.6278 17.9765C4.14563 23.0286 0.45676 28.9013 5.88426 33.0251C5.49971 27.9358 8.67177 22.2825 3.6278 17.9765ZM40.0892 21.6823C38.1807 29.8047 39.0892 35.3359 42.5237 36.5074C43.8534 25.923 43.4119 23.2469 40.0892 21.6823ZM34.8723 36.4018C31.6402 34.1252 27.2036 35.8337 20.2359 41.7137C23.6409 44.1352 24.1374 43.9593 34.8723 36.4018ZM10.7115 17.9879C14.0687 20.6143 19.8401 18.3925 26.0672 12.1442C19.1788 10.7419 15.7921 16.2349 10.7115 17.9879ZM23.7101 49.9965C36.732 43.7968 37.6649 42.9327 35.7452 38.9765C32.1815 42.6585 25.522 42.5984 23.7101 49.9965Z" fill="white"/>
</svg>
